<svg xmlns="http://www.w3.org/2000/svg" style="width: 25px;height: 25px;margin-bottom: -10px;margin-right: 0;" viewBox="0 0 15 15">
    <g fill="none" fill-rule="nonzero">
        <path fill="#FFF" d="M11.73 6.584a.38.38 0 0 1 0-.33l.48-1a1.13 1.13 0 0 0-.48-1.48l-1-.51a.36.36 0 0 1-.16-.26l-.19-1.07a1.12 1.12 0 0 0-1.26-.93l-1.11.18a.37.37 0 0 1-.31-.11l-.76-.75a1.09 1.09 0 0 0-1.55 0l-.78.75a.39.39 0 0 1-.32.11l-1.08-.18a1.13 1.13 0 0 0-1.26.92l-.19 1.08a.36.36 0 0 1-.19.27l-1 .51a1.11 1.11 0 0 0-.44 1.49l.47 1a.32.32 0 0 1 0 .33l-.47 1a1.11 1.11 0 0 0 .48 1.4l1 .51a.38.38 0 0 1 .19.27l.19 1.07a1.11 1.11 0 0 0 1.1.93h.12l1.08-.15a.38.38 0 0 1 .32.1l.78.76c.21.2.49.311.78.31a1.08 1.08 0 0 0 .77-.31l.79-.76a.36.36 0 0 1 .31-.1l1.08.15a1.12 1.12 0 0 0 1.26-.92l.19-1.07a.38.38 0 0 1 .19-.27l1-.51a1.12 1.12 0 0 0 .48-1.48l-.51-.95zm-7-3.49a1.36 1.36 0 1 1-1.4 1.35 1.35 1.35 0 0 1 1.36-1.35h.04zm-.7 6a.4.4 0 0 1-.27.11.37.37 0 0 1-.26-.63l4.85-4.86a.37.37 0 0 1 .52 0 .39.39 0 0 1 0 .53l-4.84 4.85zm3.66.63a1.36 1.36 0 1 1 1.32-1.33 1.36 1.36 0 0 1-1.36 1.36l.04-.03z"></path>
        <path fill="#F4F3F3" d="M7.64 7.77a.62.62 0 1 0 0 1.23.62.62 0 0 0 0-1.24v.01zM4.68 3.83a.61.61 0 0 0-.62.61c0 .342.278.62.62.62a.61.61 0 0 0 .61-.62.61.61 0 0 0-.61-.61z"></path>
    </g>
</svg>