<svg xmlns="http://www.w3.org/2000/svg" style="margin:0 4px;" width="30" height="25" viewBox="0 0 25 25"><g style="fill: none !important;" fill="none" fill-rule="evenodd" transform="translate(1 1)"><circle cx="11.5" cy="11.5" r="11.5" stroke="#4A4A4A"></circle>
              <path fill="#4A4A4A" d="M5 14.718V8.282a.19.19 0 0 1 .195-.185h4.252a.19.19 0 0 1 .195.185v1.06a.19.19 0 0 1-.195.184H6.602v1.4h2.341c.103 0 .196.088.196.185v1.06c0 .097-.093.185-.196.185H6.602v2.362c0 .097-.092.185-.195.185H5.195A.19.19 0 0 1 5 14.718zm5.843-.03l1.16-6.532c.011-.088.103-.156.186-.156h.164c.051 0 .144.039.174.097l2.383 4.2h.02l2.383-4.2c.03-.058.123-.097.175-.097h.164c.082 0 .174.068.185.156l1.16 6.533c.02.126-.072.214-.195.214H17.59c-.092 0-.185-.078-.195-.156l-.462-3.004h-.02l-1.726 3.15a.242.242 0 0 1-.174.107h-.185a.225.225 0 0 1-.175-.107l-1.735-3.15h-.02l-.453 3.004c-.01.078-.092.156-.195.156h-1.212c-.123 0-.215-.088-.195-.214z"></path>
            </g>
          </svg>