<svg class="normal ng-scope" ng-if="!fmFilterIsActive" xmlns="http://www.w3.org/2000/svg" width="21" height="21" viewBox="0 0 21 19">
    <path fill-rule="evenodd" d="M20.94.358A.637.637 0 0 0 20.363 0H.636C.39 0 .166.14.061.358a.615.615 0 0 0 .084.664L7.73 10.05v8.325c0 .216.114.417.3.531a.646.646 0 0 0 .619.029l4.26-2.073a.623.623 0 0 0 .354-.56l.009-6.251 7.584-9.029a.615.615 0 0 0 .084-.664zM12.14 9.427a.617.617 0 0 0-.145.396l-.008 6.089L9 17.365v-7.54a.617.617 0 0 0-.145-.398l-6.87-8.178h17.026l-6.87 8.178z"></path>
</svg>