
<svg xmlns="http://www.w3.org/2000/svg" width="130" height="20" viewBox="0 0 20 20">
    <g fill="none" fill-rule="evenodd" stroke="#4A4A4A">
        <rect width="12.5" height="16.5" x="3.75" y="1.75" stroke-width="1.5" rx="3"></rect>
        <path fill="#FFF" stroke-width="1.5" d="M10.926 4.956a2.25 2.25 0 0 1 1.324 2.05v9.23a2.25 2.25 0 0 1-3.176 2.05l-4-1.807a2.25 2.25 0 0 1-1.324-2.05V5.2a2.25 2.25 0 0 1 3.176-2.05l4 1.807z"></path>
        <rect width="1" height="1" x="7.5" y="5.5" rx=".5"></rect>
        <rect width="1" height="1" x="7.5" y="9.5" rx=".5"></rect>
        <rect width="1" height="1" x="11.5" y="5.5" rx=".5"></rect>
        <rect width="1" height="1" x="11.5" y="9.5" rx=".5"></rect>
    </g>
</svg>