<svg width="21px" height="21px" viewBox="0 0 21 21" version="1.1" xmlns="http://www.w3.org/2000/svg" xmlns:xlink="http://www.w3.org/1999/xlink"> <!-- Generator: sketchtool 50.2 (55047) - http://www.bohemiancoding.com/sketch --> <title>FECE0D4F-498E-4D64-A0A5-1423054E2C62</title> <desc>Created with sketchtool.</desc> <defs></defs> <g id="Symbols" stroke="none" stroke-width="1" fill="none" fill-rule="evenodd"> <g id="Search" fill="#4A4A4A"> <g id="Group-2" transform="translate(-3.300000, -2.700000)"> <g transform="translate(14.495689, 14.495689) rotate(-45.000000) translate(-14.495689, -14.495689) translate(5.995689, 2.495689)"> <path d="M8.9428101,16 C4.5245321,16 0.942810103,12.418278 0.942810103,8 C0.942810103,3.581722 4.5245321,0 8.9428101,0 C13.3610881,0 16.9428101,3.581722 16.9428101,8 C16.9428101,12.418278 13.3610881,16 8.9428101,16 Z M8.9428101,14.5 C12.532661,14.5 15.4428101,11.5898509 15.4428101,8 C15.4428101,4.41014913 12.532661,1.5 8.9428101,1.5 C5.35295923,1.5 2.4428101,4.41014913 2.4428101,8 C2.4428101,11.5898509 5.35295923,14.5 8.9428101,14.5 Z" id="Combined-Shape"></path> <rect id="Rectangle-3" x="8.1928101" y="15" width="1.5" height="9"></rect> </g> </g> </g> </g></svg>