<svg xmlns="http://www.w3.org/2000/svg" style="margin:0 4px;" width="35" height="26" viewBox="0 0 18 25"><g fill="#4A4A4A" fill-rule="evenodd"><path d="M8.67 25.007a.429.429 0 0 1-.376-.186C7.966 24.449.122 15.01.122 9.059.122 4.223 4.02.27 8.812.27c4.696 0 8.548 3.952 8.548 8.788 0 5.951-7.985 15.39-8.361 15.808a.428.428 0 0 1-.329.14zM8.811 1.2c-4.274 0-7.75 3.534-7.75 7.858 0 4.928 6.06 12.786 7.61 14.739 1.596-1.953 7.749-9.81 7.749-14.74 0-4.323-3.429-7.857-7.609-7.857z"></path><path d="M8.74 12.93c-1.793 0-3.252-1.442-3.252-3.214 0-1.742 1.49-3.214 3.253-3.214 1.763 0 3.252 1.472 3.252 3.214 0 1.772-1.459 3.214-3.252 3.214zm0-5.464c-1.233 0-2.275 1.03-2.275 2.25 0 1.24 1.02 2.25 2.276 2.25 1.255 0 2.276-1.01 2.276-2.25 0-1.22-1.042-2.25-2.276-2.25z"></path></g></svg>