<svg xmlns="http://www.w3.org/2000/svg" width="24" height="23" viewBox="0 0 24 23">
    <path class="path" fill-rule="evenodd" stroke-width=".3" d="M10.122 19.9c0-.578-.483-1.05-1.073-1.05s-1.073.472-1.073 1.05c0 .577.483 1.05 1.073 1.05s1.073-.473 1.073-1.05m1.073 0c0 1.155-.966 2.1-2.146 2.1s-2.147-.945-2.147-2.1c0-1.155.966-2.1 2.147-2.1 1.18 0 2.146.945 2.146 2.1m8.585 0c0-.578-.482-1.05-1.073-1.05-.59 0-1.073.472-1.073 1.05 0 .577.483 1.05 1.073 1.05s1.073-.473 1.073-1.05m1.074 0c0 1.155-.966 2.1-2.147 2.1-1.18 0-2.146-.945-2.146-2.1 0-1.155.966-2.1 2.146-2.1s2.147.945 2.147 2.1m-1.61-6.3H6.74v.105c.108 1.103-.053 1.995 1.127 1.995H21.39c.322 0 .537.21.537.525 0 .315-.215.525-.537.525H7.278c-1.46-.224-1.502-1.313-1.663-2.94L4.917 2.995c-.054-1.103-1.02-.945-2.146-.945H1.537C1.215 2.05 1 1.84 1 1.525 1 1.21 1.215 1 1.537 1H2.77c1.717 0 3.08 0 3.273 1.89l.59 9.66h12.61c.751 0 .805-.473 1.073-1.207l1.531-5.744c.25-1.17.67-.924.67-.924.16 0 .267.105.375.21.107.105.107.315.107.42l-1.61 6.3c-.429 1.207-.313 2-2.146 1.995"></path>
</svg>