<svg class="arrow" xmlns="http://www.w3.org/2000/svg" xmlns:xlink="http://www.w3.org/1999/xlink" width="10" height="6" viewBox="0 0 10 6">
    <defs>
        <path id="a" d="M177.04 9.23a.137.137 0 0 1-.002-.191.136.136 0 0 1 .192.001l3.72 3.719c.053.053.052.14 0 .192a.136.136 0 0 1-.191-.002l-3.72-3.718zm7.73-.19a.137.137 0 0 1 .191-.001.136.136 0 0 1-.001.192l-3.719 3.718a.137.137 0 0 1-.192.002.136.136 0 0 1 .002-.192l3.718-3.719z"></path>
    </defs>
    <g fill="none" fill-rule="evenodd" transform="translate(-176 -8)">
        <use fill="#E85826" xlink:href="#a"></use>
        <path stroke="#E85826" stroke-width=".5" d="M176.863 9.408a.387.387 0 0 1-.001-.546.386.386 0 0 1 .545.001l3.719 3.72c.15.15.15.395.001.545a.386.386 0 0 1-.545-.002l-3.719-3.718zm7.73-.545c.15-.15.396-.15.545-.001.15.15.148.396-.001.546l-3.72 3.718a.387.387 0 0 1-.545.002.386.386 0 0 1 .002-.546l3.718-3.719z"></path>
    </g>
</svg>