<svg xmlns="http://www.w3.org/2000/svg" width="36" height="36" viewBox="0 0 36 36">
<defs>
    <linearGradient id="a" x1="100%" x2="0%" y1="50%" y2="50%">
        <stop offset="0%" stop-color="#D9CEC0"></stop>
        <stop offset="100%" stop-color="#FFF"></stop>
    </linearGradient>
    <linearGradient id="b" x1="0%" y1="50%" y2="50%">
        <stop offset="0%" stop-color="#F5914E"></stop>
        <stop offset="100%" stop-color="#E85826"></stop>
    </linearGradient>
</defs>
<g fill="none" fill-rule="evenodd">
    <path fill="url(#a)" d="M17.528 18.54H3.506a1.08 1.08 0 0 0-1.078-1.082V-1.218c0-.598.485-1.083 1.083-1.083h14.013c.598 0 1.083.485 1.083 1.083v18.676a1.08 1.08 0 0 0-1.079 1.083z" transform="rotate(54 9.895 23.089)"></path>
    <path fill="#4A4A4A" d="M20.626 15.891c-.914.664-1.98.46-2.58-.368-.609-.836-.48-1.922.434-2.586.923-.67 1.995-.457 2.603.38.601.827.466 1.904-.457 2.574zm2.32 3.005l-.672.489-.495-8.71.681-.494.486 8.715zm3.277-2.217c-.914.664-1.98.46-2.581-.368-.608-.837-.486-1.931.428-2.595.914-.664 2.002-.449 2.61.388.6.827.457 1.91-.457 2.575zm-6.101-1.482c.412-.3.497-.823.154-1.295-.355-.49-.88-.57-1.292-.27-.403.292-.488.816-.132 1.305.342.472.867.553 1.27.26zm5.597.788c.412-.3.503-.815.154-1.295-.355-.49-.88-.57-1.292-.271-.412.3-.488.817-.133 1.306.35.48.859.56 1.27.26z"></path>
    <path fill="url(#b)" d="M11.139 3.992c0 .493.483.893 1.078.893v6.28c0 .598-.484 1.083-1.082 1.083H-2.88a1.083 1.083 0 0 1-1.083-1.083v-6.28c.596 0 1.079-.4 1.079-.893h14.022z" transform="rotate(45 -13.525 23.257)"></path>
</g>
</svg>