<svg xmlns="http://www.w3.org/2000/svg" style="margin:0 2px;" width="35" height="22" viewBox="0 0 22 22"><path fill="#4A4A4A" fill-rule="evenodd" d="M3.964 18.209a58.583 58.583 0 0 1 4.438-1.554c.786-.248.786-.91.786-1.442 0-.44-.03-1.09-.288-1.64-.178-.377-.38-1.022-.424-1.527a.463.463 0 0 0-.155-.306c-.13-.113-.395-.53-.562-1.37-.133-.663-.077-.81-.022-.95.023-.059.045-.119.063-.185.11-.403-.013-1.725-.147-2.458-.057-.318.016-1.225.612-1.987.535-.683 1.344-1.064 2.376-1.13h.869c1.061.066 1.87.447 2.404 1.13.597.762.67 1.669.612 1.987-.133.733-.256 2.055-.147 2.457.02.067.041.127.065.186.053.14.11.287-.023.95-.168.84-.432 1.257-.563 1.37a.46.46 0 0 0-.154.306c-.045.505-.247 1.15-.424 1.527-.204.432-.437 1.007-.437 1.622 0 .531 0 1.193.795 1.443a67.353 67.353 0 0 1 4.451 1.522 10.052 10.052 0 0 1-14.125.049M11 .917C16.56.917 21.083 5.44 21.083 11c0 2.447-.877 4.692-2.333 6.44-.996-.418-3.37-1.242-4.845-1.679-.126-.04-.145-.045-.145-.566 0-.431.177-.864.35-1.231a6.32 6.32 0 0 0 .489-1.671c.223-.259.527-.77.721-1.742.17-.857.091-1.169-.023-1.462-.01-.03-.023-.062-.032-.092-.043-.2.016-1.245.163-2.055.1-.556-.026-1.739-.79-2.716-.485-.618-1.41-1.377-3.099-1.482h-.927c-1.66.105-2.585.864-3.069 1.482-.766.977-.893 2.16-.79 2.716.146.81.205 1.854.162 2.051-.009.034-.022.065-.034.096-.112.293-.193.605-.022 1.462.196.972.498 1.483.722 1.742.079.6.3 1.272.488 1.67.139.293.202.689.202 1.25 0 .522-.018.529-.136.566-1.52.448-3.936 1.321-4.837 1.716A10.035 10.035 0 0 1 .917 11C.917 5.44 5.44.917 11 .917M11 0C4.924 0 0 4.924 0 11s4.924 11 11 11 11-4.924 11-11S17.076 0 11 0"></path></svg>